<svg width="60" height="46" viewBox="0 0 60 46" fill="none" xmlns="http://www.w3.org/2000/svg">
<path d="M59.5623 42.9442C59.5765 42.9181 59.5882 42.8896 59.5976 42.8612C59.6094 42.8327 59.6164 42.8018 59.6258 42.771C59.6329 42.7425 59.6399 42.714 59.6446 42.6855C59.6517 42.6523 59.6541 42.6167 59.6564 42.5835C59.6588 42.5645 59.6611 42.5479 59.6611 42.5289C59.6611 42.5194 59.6588 42.5099 59.6588 42.5004C59.6588 42.4672 59.6541 42.434 59.6494 42.4007C59.6446 42.3699 59.6399 42.339 59.6352 42.3082C59.6329 42.2987 59.6329 42.2868 59.6305 42.2773C59.5647 42.0329 57.8667 36.4439 43.9871 35.6228C49.2949 13.6349 39.1849 1.26032 38.7239 0.71474C38.5452 0.501149 38.2842 0.380112 38.0067 0.380112L37.8679 0.375366C37.7997 0.375366 37.7339 0.382485 37.6704 0.396725C37.6539 0.401471 37.6375 0.408591 37.621 0.410964C37.574 0.422831 37.5293 0.43707 37.4846 0.456056C37.4634 0.465549 37.4446 0.477415 37.4258 0.489282C37.3882 0.510641 37.3529 0.529627 37.3176 0.553361C37.2965 0.5676 37.2776 0.584213 37.2588 0.603199C37.2283 0.629304 37.2 0.65541 37.1718 0.686264C37.1648 0.695757 37.1554 0.700503 37.146 0.709996C36.685 1.25821 26.5253 13.6964 31.9298 35.7912C26.9442 36.2991 24.4181 37.443 22.6873 38.5988C22.6402 38.0957 22.5109 37.6898 22.2475 37.3766C21.9841 37.0609 21.6102 36.8806 21.1963 36.8663C18.6329 36.7856 16.1565 40.1058 14.7454 42.3913C14.3856 40.6588 14.2022 38.4873 14.9947 37.2627C15.3874 36.6575 16.0153 36.3324 16.916 36.2731C19.3336 36.1141 20.2179 35.16 20.5353 34.3887C20.8999 33.5011 20.6694 32.4877 19.9004 31.6072C18.7903 30.3328 16.5209 29.3645 13.9458 30.067C10.4888 31.0092 7.41729 35.2739 6.4462 38.8528C5.69599 41.6153 6.09344 43.979 7.56798 45.5049C7.9325 45.8822 8.5251 45.8893 8.89903 45.5238C9.27061 45.1584 9.28001 44.558 8.91785 44.1806C7.58204 42.797 7.93483 40.5614 8.26174 39.3534C9.19539 35.917 11.9657 32.5732 14.4375 31.8988C16.2201 31.4099 17.7863 32.0554 18.4872 32.8599C18.7506 33.1613 18.8705 33.477 18.7952 33.6621C18.6824 33.9397 18.0897 34.291 16.7939 34.3764C15.3029 34.4737 14.1365 35.1121 13.4168 36.2228C11.4955 39.1941 13.3439 44.5645 13.5603 45.1678C13.6873 45.5238 14.0142 45.7683 14.3881 45.7896C14.4069 45.792 14.4257 45.792 14.4446 45.792C14.7973 45.792 15.1242 45.5926 15.2841 45.2698C16.5775 42.6854 19.0704 39.1324 20.8271 38.7861C20.8765 39.3414 20.7236 40.4924 20.6272 41.2281C20.3567 43.2644 20.225 44.5507 20.8812 45.3053C21.1516 45.6186 21.5349 45.7918 21.9559 45.7918C23.2846 45.7918 23.9455 44.8995 24.4253 44.2492C24.8792 43.6346 25.0509 43.4684 25.3872 43.4684C25.7258 43.4684 25.8975 43.6345 26.349 44.2468C26.8311 44.897 27.4896 45.7894 28.8184 45.7894C30.1471 45.7894 30.8079 44.897 31.2877 44.2468C31.7416 43.6321 31.9133 43.466 32.2496 43.466C32.5882 43.466 32.7599 43.6321 33.2115 44.2444C33.6936 44.8946 34.352 45.787 35.6808 45.787C37.0118 45.787 37.6704 44.8946 38.1501 44.2444C38.604 43.6321 38.7733 43.466 39.112 43.466C39.4506 43.466 39.6223 43.6321 40.0739 44.2444C40.556 44.8946 41.2144 45.787 42.5456 45.787C43.8743 45.787 44.5351 44.8946 45.0149 44.2444C45.4688 43.6297 45.6405 43.4635 45.9768 43.4635C46.3154 43.4635 46.4871 43.6297 46.9386 44.2419C47.4207 44.8922 48.0792 45.7846 49.408 45.7846C50.739 45.7846 51.3975 44.8922 51.8797 44.2419C52.3335 43.6296 52.5029 43.4635 52.8415 43.4635C53.1802 43.4635 53.3519 43.6297 53.8034 44.2444C54.2855 44.8946 54.944 45.787 56.2728 45.787C57.8225 45.787 58.2058 44.5529 58.3893 43.9596C58.4387 43.8006 58.521 43.5324 58.5657 43.4802C58.5657 43.4802 58.6033 43.4636 58.7091 43.4636C58.7867 43.4636 58.862 43.4517 58.9349 43.4327C58.9443 43.4304 58.9513 43.4327 58.9608 43.4304C58.9819 43.4256 58.9984 43.4161 59.0172 43.409C59.0478 43.3971 59.0783 43.3876 59.1066 43.3734C59.1371 43.3592 59.163 43.3425 59.1912 43.3283C59.2147 43.3141 59.2406 43.2975 59.2618 43.2832C59.2876 43.2642 59.3135 43.2429 59.337 43.2191C59.3582 43.2002 59.377 43.1812 59.3958 43.1622C59.417 43.1385 59.4382 43.1123 59.457 43.0886C59.4734 43.0649 59.4899 43.0435 59.5064 43.0174C59.5346 42.9984 59.5487 42.9723 59.5628 42.9438L59.5623 42.9442Z" fill="#DADADA"/>
<path d="M41.2398 38.5466H38.8081V4.22961C41.5573 8.95952 46.5949 20.8735 41.2398 38.5466Z" fill="#DADADA"/>
<path d="M36.9267 4.47876V38.5466H34.6338C29.3824 21.2174 34.1564 9.37927 36.9267 4.47876Z" fill="#DADADA"/>
<path d="M56.6038 43.4046C56.5544 43.5636 56.4721 43.8318 56.4275 43.884C56.4275 43.884 56.3898 43.9006 56.284 43.9006C55.9477 43.9006 55.776 43.7345 55.3221 43.1222C54.84 42.4719 54.1816 41.5796 52.8504 41.5796C51.5217 41.5796 50.8609 42.4719 50.3811 43.1222C49.9272 43.7368 49.7555 43.903 49.4169 43.903C49.0782 43.903 48.9066 43.7369 48.455 43.1246C47.9729 42.4744 47.3144 41.582 45.9857 41.582C44.6546 41.582 43.9961 42.4744 43.514 43.1246C43.0601 43.7369 42.8908 43.903 42.5521 43.903C42.2135 43.903 42.0418 43.7369 41.5879 43.1222C41.1058 42.4719 40.4473 41.5796 39.1186 41.5796C37.7875 41.5796 37.129 42.4719 36.6492 43.1222C36.1953 43.7345 36.026 43.9006 35.6873 43.9006C35.351 43.9006 35.1794 43.7345 34.7255 43.1222C34.2434 42.4719 33.5849 41.5796 32.2561 41.5796C30.9251 41.5796 30.2666 42.4719 29.7845 43.1222C29.3306 43.7345 29.1612 43.9006 28.8226 43.9006C28.4839 43.9006 28.3122 43.7345 27.8607 43.1222C27.3786 42.4719 26.7201 41.5796 25.3914 41.5796C24.0603 41.5796 23.4018 42.4719 22.9197 43.1222C22.6375 43.5066 22.4634 43.7155 22.2918 43.8175C22.2635 43.2479 22.4046 42.18 22.4963 41.487C22.5175 41.3351 22.534 41.1951 22.5528 41.0527C24.2061 39.7617 26.3696 38.2309 32.416 37.6566C32.6112 38.3567 32.8182 39.0663 33.044 39.7878C33.1686 40.1818 33.5308 40.4499 33.94 40.4499H41.9309C42.3401 40.4499 42.7022 40.1817 42.8269 39.7878C43.0715 39.0141 43.2949 38.2523 43.5018 37.5C53.0382 37.996 56.3235 40.7252 57.365 42.0543C56.9017 42.4648 56.7136 43.0486 56.6031 43.4047L56.6038 43.4046Z" fill="#DADADA"/>
<path d="M7.28833 30.1358C7.16839 29.991 6.0772 28.7308 4.68029 28.7308C4.03358 28.7308 3.10932 28.999 2.38266 30.2735L1.57129 31.6974H8.59108L7.28833 30.1358Z" fill="white" stroke="#222532"/>
<path fill-rule="evenodd" clip-rule="evenodd" d="M5.46384 33.5745L6.43042 33.6766L6.30817 34.6496C5.95302 37.2791 3.20622 40.0535 3.08864 40.1721L1.81634 41.4442L1.50121 39.6643C1.12728 37.5711 1.39302 35.962 2.28904 34.8822C3.54249 33.3704 5.46384 33.5745 5.46384 33.5745ZM3.73533 36.0997C3.56835 36.299 3.44371 36.553 3.3567 36.852L3.35671 36.852C3.5566 36.5506 3.74944 36.235 3.91406 35.9169C3.85291 35.9715 3.79177 36.0309 3.73533 36.0997Z" fill="white"/>
<path d="M6.43042 33.6766L6.92652 33.7389L6.9901 33.2329L6.48292 33.1793L6.43042 33.6766ZM5.46384 33.5745L5.41103 34.0717L5.41135 34.0718L5.46384 33.5745ZM6.30817 34.6496L6.80369 34.7165L6.80427 34.7119L6.30817 34.6496ZM3.08864 40.1721L3.44216 40.5257L3.4438 40.5241L3.08864 40.1721ZM1.81634 41.4442L1.324 41.5314L1.49129 42.4763L2.16987 41.7978L1.81634 41.4442ZM1.50121 39.6643L1.99355 39.5771L1.99342 39.5763L1.50121 39.6643ZM2.28904 34.8822L2.67382 35.2015L2.67394 35.2013L2.28904 34.8822ZM3.3567 36.852L2.87661 36.7123L2.82251 36.8982L2.90774 37.0721L3.3567 36.852ZM3.73533 36.0997L4.11866 36.4207L4.12195 36.4167L3.73533 36.0997ZM3.35671 36.852L2.90775 37.0721L3.29151 37.855L3.77339 37.1284L3.35671 36.852ZM3.91406 35.9169L4.3581 36.1468L3.58111 35.5439L3.91406 35.9169ZM6.48292 33.1793L5.51634 33.0773L5.41135 34.0718L6.37792 34.1738L6.48292 33.1793ZM6.80427 34.7119L6.92652 33.7389L5.93432 33.6143L5.81207 34.5873L6.80427 34.7119ZM3.4438 40.5241C3.51087 40.4564 4.24753 39.712 5.01526 38.6444C5.77355 37.5899 6.60918 36.1565 6.80367 34.7165L5.81267 34.5827C5.65201 35.7722 4.93667 37.0408 4.20338 38.0605C3.47952 39.0671 2.78398 39.7692 2.73347 39.8202L3.4438 40.5241ZM2.16987 41.7978L3.44216 40.5257L2.73511 39.8185L1.46282 41.0906L2.16987 41.7978ZM1.00887 39.7514L1.324 41.5314L2.30869 41.357L1.99355 39.5771L1.00887 39.7514ZM1.90426 34.5629C0.874425 35.8039 0.622631 37.5893 1.009 39.7522L1.99342 39.5763C1.63193 37.5528 1.91162 36.12 2.67382 35.2015L1.90426 34.5629ZM5.46384 33.5745C5.51666 33.0773 5.51645 33.0773 5.51623 33.0773C5.51614 33.0773 5.51591 33.0773 5.51575 33.0772C5.51541 33.0772 5.51505 33.0772 5.51466 33.0771C5.51387 33.077 5.51296 33.0769 5.51194 33.0768C5.50989 33.0766 5.50736 33.0764 5.50438 33.0761C5.49841 33.0756 5.49058 33.0749 5.48099 33.0741C5.4618 33.0726 5.43549 33.0709 5.40271 33.0693C5.3372 33.0662 5.24549 33.0639 5.13282 33.0664C4.90812 33.0714 4.59631 33.0958 4.24067 33.1728C3.5301 33.3266 2.62262 33.6965 1.90414 34.563L2.67394 35.2013C3.20891 34.5561 3.88883 34.2721 4.4523 34.1501C4.73368 34.0892 4.98055 34.0701 5.15528 34.0661C5.24232 34.0642 5.3105 34.066 5.35496 34.0681C5.37717 34.0692 5.39336 34.0703 5.40293 34.0711C5.40771 34.0715 5.41083 34.0717 5.41221 34.0719C5.4129 34.0719 5.41315 34.072 5.41296 34.0719C5.41286 34.0719 5.41265 34.0719 5.41233 34.0719C5.41217 34.0719 5.41198 34.0718 5.41176 34.0718C5.41165 34.0718 5.41147 34.0718 5.41142 34.0718C5.41122 34.0718 5.41103 34.0717 5.46384 33.5745ZM3.83679 36.9917C3.9098 36.7408 4.00697 36.5541 4.11864 36.4207L3.35202 35.7786C3.12973 36.044 2.97763 36.3652 2.87661 36.7123L3.83679 36.9917ZM3.80567 36.6319L3.80566 36.6319L2.90774 37.0721L2.90775 37.0721L3.80567 36.6319ZM3.47003 35.6871C3.31612 35.9844 3.13341 36.2841 2.94002 36.5757L3.77339 37.1284C3.97979 36.8172 4.18277 36.4855 4.3581 36.1468L3.47003 35.6871ZM4.12195 36.4167C4.15577 36.3755 4.19615 36.3354 4.24702 36.29L3.58111 35.5439C3.50967 35.6077 3.42777 35.6862 3.34871 35.7826L4.12195 36.4167Z" fill="#222532"/>
<path fill-rule="evenodd" clip-rule="evenodd" d="M12.7066 28.2913C12.7066 29.2833 11.9047 30.0902 10.9217 30.0902C9.93864 30.0902 9.13907 29.2833 9.13907 28.2913C9.13907 27.2993 9.93864 26.4924 10.9217 26.4924C11.907 26.4924 12.7066 27.2993 12.7066 28.2913ZM11.0204 28.2913C11.0204 28.2367 10.9757 28.1916 10.9217 28.1916C10.8676 28.1916 10.8252 28.2367 10.8252 28.2913C10.8252 28.4005 11.0204 28.4005 11.0204 28.2913Z" fill="white"/>
<path d="M10.9217 30.5902C12.1842 30.5902 13.2066 29.556 13.2066 28.2913H12.2066C12.2066 29.0106 11.6251 29.5902 10.9217 29.5902V30.5902ZM8.63907 28.2913C8.63907 29.5552 9.65821 30.5902 10.9217 30.5902V29.5902C10.2191 29.5902 9.63907 29.0115 9.63907 28.2913H8.63907ZM10.9217 25.9924C9.65821 25.9924 8.63907 27.0275 8.63907 28.2913H9.63907C9.63907 27.5712 10.2191 26.9924 10.9217 26.9924V25.9924ZM13.2066 28.2913C13.2066 27.0271 12.187 25.9924 10.9217 25.9924V26.9924C11.627 26.9924 12.2066 27.5716 12.2066 28.2913H13.2066ZM10.9217 28.6916C10.6953 28.6916 10.5204 28.5086 10.5204 28.2913H11.5204C11.5204 27.9649 11.2562 27.6916 10.9217 27.6916V28.6916ZM11.3252 28.2913C11.3252 28.4927 11.1635 28.6916 10.9217 28.6916V27.6916C10.5716 27.6916 10.3252 27.9808 10.3252 28.2913H11.3252ZM10.5204 28.2913C10.5204 28.1492 10.5923 28.0255 10.691 27.9519C10.7754 27.8889 10.8619 27.8732 10.9228 27.8732C10.9837 27.8732 11.0702 27.8889 11.1546 27.9519C11.2534 28.0255 11.3252 28.1492 11.3252 28.2913H10.3252C10.3252 28.488 10.4215 28.6526 10.5568 28.7535C10.6779 28.8438 10.8131 28.8732 10.9228 28.8732C11.0325 28.8732 11.1678 28.8438 11.2888 28.7535C11.4242 28.6526 11.5204 28.488 11.5204 28.2913H10.5204Z" fill="#222532"/>
</svg>
