<svg width="19" height="25" viewBox="0 0 19 25" fill="none" xmlns="http://www.w3.org/2000/svg">
<path d="M5.24797 15.7439C3.75967 15.7439 2.54877 14.5329 2.54877 13.0447C2.54877 12.7283 2.80658 12.4705 3.12297 12.4705C3.43937 12.4705 3.69717 12.7283 3.69717 13.0447C3.69717 13.9001 4.39442 14.5974 5.24992 14.5974C6.10542 14.5974 6.80267 13.9002 6.80267 13.0447C6.80267 12.7283 7.06048 12.4705 7.37687 12.4705C7.69327 12.4705 7.95107 12.7283 7.95107 13.0447C7.94716 14.533 6.73622 15.7439 5.24797 15.7439Z" fill="#4AF6CD" stroke="#4AF6CD" stroke-width="0.5"/>
<path d="M9.49998 15.7439C8.01168 15.7439 6.80078 14.5329 6.80078 13.0447C6.80078 12.7283 7.0586 12.4705 7.37498 12.4705C7.69137 12.4705 7.94918 12.7283 7.94918 13.0447C7.94918 13.9001 8.64643 14.5974 9.50193 14.5974C10.3574 14.5974 11.0547 13.9002 11.0547 13.0447C11.0547 12.7283 11.3125 12.4705 11.6289 12.4705C11.9453 12.4705 12.2031 12.7283 12.2031 13.0447C12.1992 14.533 10.9882 15.7439 9.49998 15.7439Z" fill="#4AF6CD" stroke="#4AF6CD" stroke-width="0.5"/>
<path d="M13.752 15.7439C12.2637 15.7439 11.0528 14.5329 11.0528 13.0447C11.0528 12.7283 11.3106 12.4705 11.627 12.4705C11.9434 12.4705 12.2012 12.7283 12.2012 13.0447C12.2012 13.9001 12.8984 14.5974 13.7539 14.5974C14.6094 14.5974 15.3067 13.9002 15.3067 13.0447C15.3067 12.7283 15.5645 12.4705 15.8809 12.4705C16.1973 12.4705 16.4551 12.7283 16.4551 13.0447C16.4512 14.533 15.2402 15.7439 13.752 15.7439Z" fill="#4AF6CD" stroke="#4AF6CD" stroke-width="0.5"/>
<path fill-rule="evenodd" clip-rule="evenodd" d="M0.421997 15.0685C0.421997 20.0742 4.494 24.1465 9.5 24.1465L9.50025 24.1466C14.506 24.1466 18.5783 20.0746 18.5802 15.0686C18.5802 8.23659 10.2367 0.795042 9.88125 0.480587C9.67225 0.295042 9.35779 0.289182 9.141 0.464962C8.7835 0.751962 0.421997 7.59196 0.421997 15.0685ZM1.56837 15.068C1.56837 9.00146 7.86522 3.09736 9.48437 1.67746C11.0899 3.19096 17.4293 9.52496 17.4274 15.068C17.4274 19.4408 13.8707 22.9975 9.49787 22.9975C5.12502 22.9975 1.56837 19.441 1.56837 15.068Z" fill="#4AF6CD"/>
<path d="M9.5 24.1465L9.61248 23.9232L9.55942 23.8965H9.5V24.1465ZM9.50025 24.1466L9.38776 24.3699L9.44083 24.3966H9.50025V24.1466ZM18.5802 15.0686L18.8302 15.0687V15.0686H18.5802ZM9.88125 0.480587L9.71527 0.667543L9.7156 0.667836L9.88125 0.480587ZM9.141 0.464962L9.2975 0.659916L9.29845 0.659151L9.141 0.464962ZM9.48437 1.67746L9.65586 1.49555L9.49045 1.33962L9.31954 1.4895L9.48437 1.67746ZM17.4274 15.068L17.1774 15.0679V15.068H17.4274ZM9.5 23.8965C4.63207 23.8965 0.671997 19.9361 0.671997 15.0685H0.171997C0.171997 20.2123 4.35592 24.3965 9.5 24.3965V23.8965ZM9.61273 23.9233L9.61248 23.9232L9.38751 24.3697L9.38776 24.3699L9.61273 23.9233ZM18.3302 15.0685C18.3283 19.9365 14.368 23.8966 9.50025 23.8966V24.3966C14.6441 24.3966 18.8282 20.2127 18.8302 15.0687L18.3302 15.0685ZM9.7156 0.667836C9.8881 0.820431 12.0498 2.74757 14.1663 5.48348C16.2911 8.23003 18.3302 11.7411 18.3302 15.0686H18.8302C18.8302 11.5641 16.6976 7.93837 14.5618 5.17754C12.4177 2.40606 10.2299 0.455199 10.0469 0.293338L9.7156 0.667836ZM9.29845 0.659151C9.42087 0.559889 9.59843 0.563816 9.71527 0.667543L10.0472 0.293632C9.74606 0.0262691 9.29471 0.0184753 8.98355 0.270774L9.29845 0.659151ZM0.671997 15.0685C0.671997 11.4168 2.71832 7.89379 4.84298 5.22641C6.96208 2.56601 9.12629 0.797364 9.2975 0.659913L8.98449 0.270011C8.79821 0.419561 6.60291 2.21441 4.45189 4.91489C2.30642 7.60839 0.171997 11.2436 0.171997 15.0685H0.671997ZM9.31954 1.4895C8.50331 2.20529 6.50953 4.04976 4.71791 6.48197C2.93076 8.9081 1.31837 11.9543 1.31837 15.068H1.81837C1.81837 12.1151 3.35441 9.17603 5.12048 6.77851C6.88207 4.38706 8.84629 2.56954 9.64921 1.86543L9.31954 1.4895ZM17.6774 15.0681C17.6784 12.2133 16.0526 9.18907 14.2612 6.71503C12.4628 4.2315 10.4641 2.25745 9.65586 1.49555L9.31288 1.85937C10.1102 2.61097 12.0839 4.56067 13.8562 7.00827C15.6353 9.46536 17.1783 12.3796 17.1774 15.0679L17.6774 15.0681ZM9.49787 23.2475C14.0088 23.2475 17.6774 19.5789 17.6774 15.068H17.1774C17.1774 19.3027 13.7327 22.7475 9.49787 22.7475V23.2475ZM1.31837 15.068C1.31837 19.5791 4.98695 23.2475 9.49787 23.2475V22.7475C5.26309 22.7475 1.81837 19.3029 1.81837 15.068H1.31837Z" fill="#4AF6CD"/>
</svg>
